<?xml version="1.0" encoding="utf-8"?>
<!-- Generator: Adobe Illustrator 25.2.0, SVG Export Plug-In . SVG Version: 6.00 Build 0)  -->
<svg version="1.1" id="Layer_1" xmlns="http://www.w3.org/2000/svg" xmlns:xlink="http://www.w3.org/1999/xlink" x="0px" y="0px"
	 viewBox="0 0 147.17 95.36" style="enable-background:new 0 0 147.17 95.36;" xml:space="preserve">
<style type="text/css">
	.st0{fill:url(#XMLID_2_);}
	.st1{fill:url(#XMLID_3_);}
	.st2{fill:url(#XMLID_4_);}
	.st3{fill:url(#XMLID_5_);}
	.st4{fill:url(#XMLID_6_);}
</style>
<g id="XMLID_524_">
	<path id="XMLID_670_" d="M53.92,64.35V52.68c0-0.19,0.04-0.33,0.13-0.41c0.08-0.08,0.22-0.13,0.41-0.13h3.02
		c1.44,0,2.52,0.25,3.24,0.76c0.72,0.51,1.09,1.31,1.09,2.42c0,0.74-0.18,1.37-0.54,1.88c-0.36,0.51-0.87,0.9-1.53,1.16v0.07
		c0.35,0.12,0.64,0.35,0.87,0.7c0.23,0.35,0.48,0.86,0.74,1.54l1.4,3.54c0.04,0.11,0.05,0.19,0.05,0.25c0,0.19-0.25,0.29-0.75,0.29
		h-0.18c-0.18,0-0.34-0.03-0.47-0.08c-0.13-0.05-0.22-0.12-0.25-0.21l-1.36-3.52c-0.26-0.68-0.59-1.15-0.99-1.39
		c-0.4-0.24-0.96-0.37-1.69-0.37H55.5v5.17c0,0.26-0.24,0.4-0.72,0.4h-0.14C54.16,64.74,53.92,64.61,53.92,64.35z M57.87,57.81
		c0.42,0,0.81-0.1,1.16-0.31c0.35-0.2,0.63-0.47,0.84-0.81s0.31-0.7,0.31-1.1c0-0.71-0.22-1.23-0.65-1.58
		c-0.43-0.35-1.02-0.52-1.78-0.52H55.5v4.31H57.87z"/>
	<path id="XMLID_663_" d="M65.26,64.04c-0.52-0.51-0.78-1.23-0.78-2.14v-6.23c0-0.26,0.24-0.4,0.72-0.4h0.07
		c0.48,0,0.72,0.13,0.72,0.4v6.09c0,0.55,0.16,0.98,0.48,1.28c0.32,0.31,0.77,0.46,1.36,0.46c0.41,0,0.81-0.11,1.21-0.34
		c0.4-0.23,0.75-0.53,1.05-0.92v-6.57c0-0.26,0.24-0.4,0.72-0.4h0.07c0.48,0,0.72,0.13,0.72,0.4v6.37c0,0.79,0.04,1.36,0.11,1.7
		c0.07,0.34,0.11,0.53,0.11,0.57c0,0.14-0.11,0.25-0.34,0.31c-0.23,0.07-0.44,0.1-0.63,0.1c-0.17,0-0.29-0.09-0.37-0.28
		c-0.08-0.19-0.14-0.38-0.18-0.58c-0.04-0.2-0.07-0.34-0.08-0.4c-0.38,0.42-0.82,0.75-1.31,0.99c-0.49,0.24-0.99,0.36-1.49,0.36
		C66.5,64.82,65.78,64.56,65.26,64.04z"/>
	<path id="XMLID_641_" d="M74.75,64.35v-6.3c0-0.79-0.04-1.36-0.11-1.7c-0.07-0.34-0.11-0.53-0.11-0.57c0-0.14,0.11-0.25,0.34-0.31
		c0.23-0.07,0.44-0.1,0.63-0.1c0.17,0,0.29,0.09,0.37,0.26c0.08,0.17,0.14,0.36,0.18,0.55c0.04,0.19,0.07,0.32,0.08,0.38
		c0.63-0.9,1.33-1.35,2.08-1.35c0.34,0,0.59,0.07,0.77,0.2c0.18,0.13,0.27,0.3,0.27,0.5c0,0.2-0.04,0.42-0.11,0.64
		c-0.07,0.22-0.16,0.33-0.25,0.33c-0.06,0-0.18-0.03-0.35-0.1c-0.17-0.07-0.39-0.1-0.64-0.1c-0.28,0-0.54,0.08-0.78,0.24
		c-0.25,0.16-0.45,0.34-0.62,0.53c-0.17,0.19-0.25,0.3-0.25,0.32v6.57c0,0.26-0.24,0.4-0.72,0.4h-0.07
		C74.99,64.74,74.75,64.61,74.75,64.35z"/>
	<path id="XMLID_638_" d="M81.43,64.13c-0.56-0.45-0.84-1.13-0.84-2.01c0-0.95,0.28-1.65,0.85-2.13c0.57-0.47,1.27-0.78,2.09-0.92
		c0.83-0.14,1.83-0.21,3.02-0.22v-0.84c0-0.44-0.16-0.8-0.47-1.09c-0.31-0.28-0.81-0.42-1.51-0.42c-0.53,0-0.99,0.06-1.38,0.19
		c-0.4,0.13-0.72,0.25-0.99,0.38c-0.26,0.13-0.41,0.19-0.43,0.19c-0.12,0-0.25-0.12-0.4-0.36c-0.15-0.24-0.22-0.42-0.22-0.54
		c0-0.16,0.16-0.32,0.48-0.5s0.74-0.33,1.27-0.46c0.53-0.13,1.07-0.19,1.63-0.19c1.11,0,1.98,0.25,2.6,0.74
		c0.62,0.5,0.93,1.19,0.93,2.07v4.02c0,0.79,0.04,1.36,0.11,1.7c0.07,0.34,0.11,0.53,0.11,0.57c0,0.14-0.11,0.25-0.34,0.31
		c-0.23,0.07-0.44,0.1-0.63,0.1c-0.17,0-0.29-0.09-0.37-0.28c-0.08-0.19-0.14-0.38-0.18-0.58c-0.04-0.2-0.07-0.34-0.08-0.4
		c-0.81,0.9-1.82,1.35-3.02,1.35C82.73,64.82,81.99,64.59,81.43,64.13z M85.25,63.18c0.42-0.22,0.86-0.52,1.3-0.92v-2.12
		c-0.9,0.01-1.63,0.05-2.2,0.11c-0.57,0.06-1.07,0.23-1.5,0.5c-0.43,0.28-0.65,0.7-0.65,1.28c0,0.48,0.13,0.84,0.39,1.1
		c0.26,0.25,0.64,0.38,1.14,0.38C84.31,63.5,84.82,63.4,85.25,63.18z"/>
	<path id="XMLID_636_" d="M91.67,64.27c-0.47-0.37-0.71-1.01-0.71-1.93V51.6c0-0.26,0.24-0.4,0.72-0.4h0.07
		c0.48,0,0.72,0.13,0.72,0.4v10.59c0,0.5,0.09,0.85,0.26,1.04c0.17,0.19,0.41,0.29,0.71,0.29c0.23,0,0.4-0.01,0.51-0.04
		c0.11-0.03,0.2-0.05,0.26-0.05c0.11,0,0.2,0.11,0.27,0.33c0.07,0.22,0.11,0.39,0.11,0.51c0,0.36-0.44,0.54-1.31,0.54
		C92.68,64.82,92.15,64.63,91.67,64.27z"/>
	<path id="XMLID_634_" d="M12.31,86.96L6.4,76.52c-0.33-0.47-0.65-1.04-0.96-1.7l-0.17,0.04c0.03,0.47,0.04,1.18,0.04,2.12V93.9
		c0,0.8-0.73,1.21-2.2,1.21H2.2c-1.47,0-2.2-0.4-2.2-1.21V67.04c0-0.8,0.73-1.21,2.2-1.21h1.95c1.19,0,1.97,0.33,2.33,1l7.23,12.76
		c0.28,0.47,0.5,0.93,0.67,1.37c0.11-0.36,0.33-0.83,0.67-1.41l7.28-12.72c0.36-0.67,1.12-1,2.29-1h1.91c1.47,0,2.2,0.4,2.2,1.21
		V93.9c0,0.8-0.73,1.21-2.2,1.21h-0.91c-1.47,0-2.2-0.4-2.2-1.21V77.06c0-0.94,0.01-1.65,0.04-2.12l-0.17-0.04
		c-0.31,0.67-0.62,1.23-0.96,1.7l-5.86,10.35c-0.31,0.47-0.78,0.71-1.41,0.71h-1.33C13.08,87.66,12.61,87.43,12.31,86.96z"/>
	<path id="XMLID_631_" d="M36.46,92.47c-1.75-1.9-2.62-4.62-2.62-8.17c0-3.82,0.87-6.67,2.6-8.52c1.73-1.86,4.18-2.79,7.34-2.79
		c2.99,0,5.22,0.97,6.67,2.91c1.46,1.94,2.18,4.56,2.18,7.86c0,0.31-0.25,0.74-0.75,1.31c-0.5,0.57-0.87,0.85-1.12,0.85H39.29
		c0.14,1.83,0.64,3.15,1.52,3.97c0.87,0.82,2.14,1.23,3.8,1.23c1.5,0,3.02-0.39,4.57-1.16c0.44-0.19,0.72-0.29,0.83-0.29
		c0.36,0,0.77,0.37,1.23,1.1c0.46,0.73,0.69,1.3,0.69,1.68c0,0.53-0.4,1.01-1.21,1.45c-0.8,0.44-1.79,0.79-2.97,1.04
		c-1.18,0.25-2.28,0.37-3.31,0.37C40.87,95.31,38.21,94.37,36.46,92.47z M47.44,82.22c0-1.58-0.31-2.81-0.94-3.7
		c-0.62-0.89-1.55-1.33-2.76-1.33c-2.58,0-4.06,1.68-4.45,5.03H47.44z"/>
	<path id="XMLID_629_" d="M59.2,94.98c-1.05-0.25-1.91-0.59-2.58-1.02c-0.67-0.43-1-0.88-1-1.35c0-0.47,0.24-1.06,0.71-1.77
		c0.47-0.71,0.89-1.06,1.25-1.06c0.11,0,0.42,0.13,0.91,0.4c0.5,0.26,1.03,0.49,1.6,0.69c0.57,0.19,1.21,0.29,1.93,0.29
		c2,0,2.99-0.78,2.99-2.33c0-0.75-0.3-1.33-0.89-1.75c-0.6-0.42-1.56-0.86-2.89-1.33c-1.64-0.58-2.9-1.33-3.78-2.25
		c-0.89-0.91-1.33-2.25-1.33-3.99c0-2,0.67-3.59,2.02-4.78c1.34-1.19,3.12-1.79,5.34-1.79c1.44,0,2.8,0.2,4.07,0.6
		c1.27,0.4,1.91,0.94,1.91,1.6c0,0.47-0.19,1.07-0.58,1.81c-0.39,0.73-0.75,1.1-1.08,1.1c-0.06,0-0.43-0.15-1.12-0.46
		c-0.69-0.3-1.52-0.46-2.49-0.46c-0.83,0-1.5,0.16-2,0.48c-0.5,0.32-0.75,0.77-0.75,1.35c0,0.58,0.18,1.07,0.54,1.45
		c0.36,0.39,0.77,0.69,1.23,0.91c0.46,0.22,1.27,0.57,2.43,1.04c1.61,0.64,2.79,1.4,3.53,2.29c0.75,0.89,1.12,2.16,1.12,3.82
		c0,2.05-0.71,3.71-2.14,4.97c-1.43,1.26-3.33,1.89-5.72,1.89C61.34,95.36,60.26,95.23,59.2,94.98z"/>
	<path id="XMLID_627_" d="M74.17,88.58V74.4c0-0.42,0.17-0.72,0.52-0.91c0.35-0.19,0.91-0.29,1.68-0.29h0.79
		c1.47,0,2.2,0.4,2.2,1.21v13.47c0,2.05,1.04,3.08,3.12,3.08c0.8,0,1.56-0.25,2.27-0.75c0.71-0.5,1.28-1.11,1.73-1.83V74.4
		c0-0.8,0.73-1.21,2.2-1.21h0.83c1.47,0,2.2,0.4,2.2,1.21v13.72c0,1.89,0.08,3.26,0.25,4.14c0.17,0.87,0.25,1.41,0.25,1.6
		c0,0.39-0.46,0.69-1.37,0.89c-0.91,0.21-1.73,0.31-2.45,0.31c-0.44,0-0.76-0.2-0.96-0.6c-0.19-0.4-0.34-0.84-0.44-1.31
		c-0.1-0.47-0.16-0.79-0.19-0.96c-0.75,0.91-1.68,1.66-2.81,2.25c-1.12,0.58-2.29,0.87-3.51,0.87
		C76.28,95.31,74.17,93.07,74.17,88.58z"/>
	<path id="XMLID_625_" d="M97.62,93.9V80.26c0-1.86-0.08-3.22-0.25-4.07c-0.17-0.86-0.25-1.39-0.25-1.58c0-0.39,0.46-0.69,1.37-0.89
		c0.91-0.21,1.73-0.31,2.45-0.31c0.44,0,0.76,0.19,0.96,0.58c0.19,0.39,0.34,0.8,0.44,1.23c0.1,0.43,0.16,0.73,0.19,0.89
		c1.27-2.08,2.81-3.12,4.61-3.12c0.86,0,1.48,0.2,1.85,0.6c0.37,0.4,0.56,0.87,0.56,1.39c0,0.55-0.11,1.21-0.33,1.95
		c-0.22,0.75-0.5,1.12-0.83,1.12c-0.14,0-0.41-0.06-0.81-0.19c-0.4-0.12-0.81-0.19-1.23-0.19c-0.8,0-1.53,0.26-2.16,0.79
		c-0.64,0.53-1.08,1.01-1.33,1.46V93.9c0,0.8-0.75,1.21-2.25,1.21h-0.79C98.35,95.11,97.62,94.71,97.62,93.9z"/>
	<path id="XMLID_622_" d="M114.41,92.47c-1.75-1.9-2.62-4.62-2.62-8.17c0-3.82,0.87-6.67,2.6-8.52c1.73-1.86,4.18-2.79,7.34-2.79
		c2.99,0,5.22,0.97,6.67,2.91c1.46,1.94,2.18,4.56,2.18,7.86c0,0.31-0.25,0.74-0.75,1.31c-0.5,0.57-0.87,0.85-1.12,0.85h-11.47
		c0.14,1.83,0.64,3.15,1.52,3.97c0.87,0.82,2.14,1.23,3.8,1.23c1.5,0,3.02-0.39,4.57-1.16c0.44-0.19,0.72-0.29,0.83-0.29
		c0.36,0,0.77,0.37,1.23,1.1c0.46,0.73,0.69,1.3,0.69,1.68c0,0.53-0.4,1.01-1.21,1.45c-0.8,0.44-1.79,0.79-2.97,1.04
		c-1.18,0.25-2.28,0.37-3.31,0.37C118.82,95.31,116.16,94.37,114.41,92.47z M125.39,82.22c0-1.58-0.31-2.81-0.94-3.7
		c-0.62-0.89-1.55-1.33-2.76-1.33c-2.58,0-4.06,1.68-4.45,5.03H125.39z"/>
	<path id="XMLID_620_" d="M135.24,93.9V80.26c0-1.86-0.08-3.22-0.25-4.07c-0.17-0.86-0.25-1.39-0.25-1.58
		c0-0.39,0.46-0.69,1.37-0.89c0.91-0.21,1.73-0.31,2.45-0.31c0.44,0,0.76,0.19,0.96,0.58c0.19,0.39,0.34,0.8,0.44,1.23
		c0.1,0.43,0.16,0.73,0.19,0.89c1.27-2.08,2.81-3.12,4.61-3.12c0.86,0,1.48,0.2,1.85,0.6c0.37,0.4,0.56,0.87,0.56,1.39
		c0,0.55-0.11,1.21-0.33,1.95c-0.22,0.75-0.5,1.12-0.83,1.12c-0.14,0-0.41-0.06-0.81-0.19c-0.4-0.12-0.81-0.19-1.23-0.19
		c-0.8,0-1.53,0.26-2.16,0.79c-0.64,0.53-1.08,1.01-1.33,1.46V93.9c0,0.8-0.75,1.21-2.25,1.21h-0.79
		C135.98,95.11,135.24,94.71,135.24,93.9z"/>
	<g id="XMLID_526_">
		<linearGradient id="XMLID_2_" gradientUnits="userSpaceOnUse" x1="0.593" y1="57.8627" x2="46.9443" y2="57.8627">
			<stop  offset="0" style="stop-color:#FFFFFF"/>
			<stop  offset="1" style="stop-color:#000000"/>
		</linearGradient>
		<path id="XMLID_538_" class="st0" d="M46.73,58.08H0.81c-0.12,0-0.22-0.1-0.22-0.22c0-0.12,0.1-0.22,0.22-0.22h45.92
			c0.12,0,0.22,0.1,0.22,0.22C46.94,57.98,46.85,58.08,46.73,58.08z"/>
	</g>
	<g id="XMLID_525_">
		
			<linearGradient id="XMLID_3_" gradientUnits="userSpaceOnUse" x1="5305.019" y1="1963.8492" x2="5351.3706" y2="1963.8492" gradientTransform="matrix(-1 0 0 -1 5452.0303 2021.712)">
			<stop  offset="0" style="stop-color:#FFFFFF"/>
			<stop  offset="1" style="stop-color:#000000"/>
		</linearGradient>
		<path id="XMLID_535_" class="st1" d="M146.79,58.08h-45.92c-0.12,0-0.22-0.1-0.22-0.22c0-0.12,0.1-0.22,0.22-0.22h45.92
			c0.12,0,0.22,0.1,0.22,0.22C147.01,57.98,146.91,58.08,146.79,58.08z"/>
	</g>
	<g id="XMLID_528_">
		<linearGradient id="XMLID_4_" gradientUnits="userSpaceOnUse" x1="87.5177" y1="38.8305" x2="45.2373" y2="-3.4499">
			<stop  offset="0" style="stop-color:#6DC629"/>
			<stop  offset="0.2199" style="stop-color:#64C232"/>
			<stop  offset="0.5854" style="stop-color:#4BB94C"/>
			<stop  offset="0.9764" style="stop-color:#29AC6E"/>
			<stop  offset="0.9983" style="stop-color:#27AB70"/>
		</linearGradient>
		<path id="XMLID_555_" class="st2" d="M78.4,3.85c-7.85,0-16.66,1.05-24.12,2.84l-3.93-5.85C49.97,0.28,49.36,0,48.7,0h-5.91
			c-1.09,0-2.2,0.79-2.2,1.88v9.94c-2.62,1.76-3.94,3.71-3.94,5.83c0,2.12,1.32,4.07,3.94,5.83v9.94c0,1.09,1.11,2.18,2.2,2.18h5.91
			c0.66,0,1.27-0.43,1.64-0.98l3.93-5.95c3.74,0.9,7.82,1.58,11.94,2.07l2.43,7.37c0.27,0.81,1.02,1.43,1.87,1.43h11.83
			c0.85,0,1.6-0.64,1.87-1.44l2.33-7.04c15.12-1.84,17.61-8.92,17.61-13.37C104.15,12.52,100.81,3.85,78.4,3.85z M44.51,3.93h3.13
			l2.49,3.79c-2.07,0.62-3.87,1.15-5.62,1.84V3.93z M47.64,31.22h-3.13V25.4c1.75,0.69,3.55,1.32,5.62,1.93L47.64,31.22z
			 M80.92,35.15h-8.99l-1.42-4.23c2.68,0.21,5.33,0.34,7.89,0.34c1.36,0,2.65-0.06,3.87-0.12L80.92,35.15z M96.92,23.41v-4.87
			c0-0.94-0.37-1.71-1.31-1.71s-1.31,0.76-1.31,1.71v6.33c0,0,0.04,0.01,0.03,0.02c-2.3,0.95-4.83,1.54-7.23,1.9V14.63
			c0-0.94-0.69-1.71-1.64-1.71c-0.94,0-1.64,0.76-1.64,1.71v12.53c-3.06,0.26-5.43,0.18-5.43,0.18c-0.44,0-0.9-0.01-1.35-0.02
			c0-0.02,0.01-0.05,0.01-0.07v-8.71c0-0.94-0.58-1.71-1.53-1.71s-1.53,0.76-1.53,1.71v8.69c-1.75-0.09-3.71-0.23-5.68-0.42v-8.27
			c0-0.94-0.37-1.71-1.31-1.71s-1.31,0.76-1.31,1.71v7.97c-1.97-0.26-3.93-0.57-5.9-0.94V14.63c0-0.94-0.37-1.71-1.31-1.71
			c-0.94,0-1.31,0.76-1.31,1.71v10.42c-1.53-0.34-3.09-0.7-4.54-1.11c-0.54-0.15-1.07-0.3-1.57-0.45c0-0.05,0-0.1,0-0.15v-4.81
			c0-0.94-0.37-1.71-1.31-1.71c-0.94,0-1.31,0.76-1.31,1.71v4.09c-5.9-2.16-7.64-4.23-7.64-5.15c0-1.1,2.47-3.87,11.81-6.46
			c7.65-2.12,17.29-3.39,25.78-3.39c0,0,8.66-0.24,15.95,2.46c3.45,1.28,5.84,3.72,5.84,7.4C100.18,19.9,99.1,21.85,96.92,23.41z"/>
		<linearGradient id="XMLID_5_" gradientUnits="userSpaceOnUse" x1="98.5963" y1="30.9569" x2="115.0633" y2="30.9569">
			<stop  offset="0" style="stop-color:#6DC629"/>
			<stop  offset="0.2199" style="stop-color:#64C232"/>
			<stop  offset="0.5854" style="stop-color:#4BB94C"/>
			<stop  offset="0.9764" style="stop-color:#29AC6E"/>
			<stop  offset="0.9983" style="stop-color:#27AB70"/>
		</linearGradient>
		<path id="XMLID_531_" class="st3" d="M100.19,39.85c-0.46,0-0.84-0.13-1.13-0.37c-0.28-0.24-0.44-0.57-0.46-0.97
			c-0.06-0.83,0.52-1.44,1.5-1.58c0.19-0.03,0.39-0.05,0.58-0.08c0.55-0.07,1.07-0.14,1.59-0.27c3.96-1,6.89-3.43,8.72-7.24
			c0.77-1.61,1.15-3.45,1.15-5.63c0-0.5,0.16-0.94,0.46-1.24c0.26-0.26,0.63-0.4,1.01-0.4c0.86,0.01,1.43,0.65,1.45,1.63
			c0.08,4.03-1.3,7.72-4.1,10.99l-0.02,0.02c-2.96,3.1-6.52,4.83-10.56,5.14C100.32,39.85,100.25,39.85,100.19,39.85z"/>
		<linearGradient id="XMLID_6_" gradientUnits="userSpaceOnUse" x1="98.3027" y1="27.9182" x2="108.6738" y2="27.9182">
			<stop  offset="0" style="stop-color:#6DC629"/>
			<stop  offset="0.2199" style="stop-color:#64C232"/>
			<stop  offset="0.5854" style="stop-color:#4BB94C"/>
			<stop  offset="0.9764" style="stop-color:#29AC6E"/>
			<stop  offset="0.9983" style="stop-color:#27AB70"/>
		</linearGradient>
		<path id="XMLID_529_" class="st4" d="M99.8,33.46c-0.56,0-1.04-0.25-1.3-0.67c-0.26-0.43-0.26-0.98,0.01-1.47
			c0.37-0.67,1.02-0.75,1.45-0.8c2.56-0.3,4.34-1.65,5.3-4.03c0.23-0.58,0.31-1.24,0.39-1.93c0.02-0.22,0.05-0.44,0.08-0.65
			c0.14-0.98,0.72-1.55,1.56-1.51c0.85,0.03,1.35,0.61,1.38,1.59c0.08,2.35-0.72,4.48-2.44,6.51l-0.03,0.04l-0.18,0.17
			c-0.15,0.15-0.32,0.31-0.5,0.47c-1.67,1.46-3.58,2.24-5.65,2.3C99.84,33.46,99.82,33.46,99.8,33.46z"/>
	</g>
</g>
</svg>
